<svg width="500" height="500" viewBox="0 0 500 500" fill="none" xmlns="http://www.w3.org/2000/svg">
<rect width="500" height="500" rx="30" fill="#231F20"/>
<path d="M35.3748 351.9V332.1H111.055V351.9H35.3748ZM116.689 402.06L174.769 342.88V341.12L116.689 282.16H147.929L206.449 341.78L147.929 402.06H116.689Z" fill="#D34F73"/>
<path d="M350.157 402.06L291.637 341.78L350.157 282.16H381.397L323.317 341.12V342.88L381.397 402.06H350.157ZM387.031 351.9V332.1H462.711V351.9H387.031Z" fill="#F6AF65"/>
<path d="M70.3465 202.8C63.6465 202.8 57.6465 201.25 52.3465 198.15C47.1465 195.05 42.9965 190.6 39.8965 184.8C36.7965 178.9 35.2465 171.9 35.2465 163.8C35.2465 155.7 36.7965 148.75 39.8965 142.95C42.9965 137.05 47.1965 132.55 52.4965 129.45C57.8965 126.35 63.8465 124.8 70.3465 124.8C79.5465 124.8 86.8965 127.1 92.3965 131.7C97.8965 136.3 101.396 142.45 102.896 150.15H89.9965C88.7965 146.05 86.4965 142.8 83.0965 140.4C79.6965 137.9 75.3965 136.65 70.1965 136.65C66.3965 136.65 62.7965 137.65 59.3965 139.65C55.9965 141.65 53.2465 144.65 51.1465 148.65C49.0465 152.65 47.9965 157.7 47.9965 163.8C47.9965 169.9 49.0465 175 51.1465 179.1C53.2465 183.1 55.9965 186.1 59.3965 188.1C62.7965 190.1 66.3965 191.1 70.1965 191.1C75.6965 191.1 80.0465 189.85 83.2465 187.35C86.5465 184.85 88.7965 181.55 89.9965 177.45H102.896C100.996 185.35 97.2465 191.55 91.6465 196.05C86.1465 200.55 79.0465 202.8 70.3465 202.8ZM126.688 201V190.2H145.738V141.15C145.738 138.65 144.538 137.4 142.138 137.4H128.638V126.6H146.788C150.088 126.6 152.738 127.5 154.738 129.3C156.738 131.1 157.738 133.75 157.738 137.25V140.4H158.338C159.538 135.4 161.788 131.55 165.088 128.85C168.488 126.15 173.188 124.8 179.188 124.8H192.838V138.15H177.388C171.288 138.15 166.588 140.2 163.288 144.3C159.988 148.3 158.338 153.45 158.338 159.75V190.2H181.738V201H126.688ZM243.779 202.8C234.779 202.8 227.979 200.1 223.379 194.7C218.779 189.3 216.479 181.5 216.479 171.3V126.6H229.079V169.8C229.079 176.4 230.529 181.6 233.429 185.4C236.429 189.1 240.929 190.95 246.929 190.95C252.929 190.95 257.979 188.95 262.079 184.95C266.179 180.85 268.229 175 268.229 167.4V126.6H280.829V201H270.329L268.979 189.75H268.229C266.229 193.35 263.079 196.45 258.779 199.05C254.479 201.55 249.479 202.8 243.779 202.8ZM299.521 201V126.6H309.871L311.221 135.3H311.971C313.271 132.3 315.221 129.8 317.821 127.8C320.521 125.8 323.771 124.8 327.571 124.8C331.371 124.8 334.571 125.75 337.171 127.65C339.871 129.45 341.821 132 343.021 135.3H343.621C344.921 132.3 347.021 129.8 349.921 127.8C352.821 125.8 356.321 124.8 360.421 124.8C366.121 124.8 370.371 126.75 373.171 130.65C376.071 134.45 377.521 139.55 377.521 145.95V201H365.221V147.9C365.221 144.3 364.471 141.45 362.971 139.35C361.571 137.25 359.271 136.2 356.071 136.2C352.771 136.2 350.071 137.45 347.971 139.95C345.871 142.45 344.821 146 344.821 150.6V201H332.371V147.9C332.371 144.3 331.671 141.45 330.271 139.35C328.871 137.25 326.571 136.2 323.371 136.2C320.071 136.2 317.321 137.45 315.121 139.95C313.021 142.45 311.971 146 311.971 150.6V201H299.521ZM431.462 202.8C425.762 202.8 420.912 201.65 416.912 199.35C413.012 196.95 410.112 193.7 408.212 189.6H407.312L405.962 201H395.612V93H408.212V137.25C410.112 133.95 413.062 131.05 417.062 128.55C421.162 126.05 425.962 124.8 431.462 124.8C437.862 124.8 443.512 126.3 448.412 129.3C453.312 132.3 457.162 136.7 459.962 142.5C462.762 148.3 464.162 155.35 464.162 163.65C464.162 172.05 462.762 179.2 459.962 185.1C457.162 190.9 453.262 195.3 448.262 198.3C443.362 201.3 437.762 202.8 431.462 202.8ZM429.812 190.8C436.112 190.8 441.262 188.6 445.262 184.2C449.362 179.7 451.412 172.9 451.412 163.8C451.412 154.7 449.362 147.95 445.262 143.55C441.262 139.05 436.112 136.8 429.812 136.8C423.512 136.8 418.312 139.05 414.212 143.55C410.112 147.95 408.062 154.7 408.062 163.8C408.062 172.9 410.112 179.7 414.212 184.2C418.312 188.6 423.512 190.8 429.812 190.8Z" fill="white"/>
</svg>
