<svg width="1280" height="640" viewBox="0 0 1280 640" fill="none" xmlns="http://www.w3.org/2000/svg">
<rect width="1280" height="640" fill="#231F20"/>
<path d="M426.375 401.9V382.1H502.055V401.9H426.375ZM507.689 452.06L565.769 392.88V391.12L507.689 332.16H538.929L597.449 391.78L538.929 452.06H507.689Z" fill="#D34F73"/>
<path d="M741.157 452.06L682.637 391.78L741.157 332.16H772.397L714.317 391.12V392.88L772.397 452.06H741.157ZM778.031 401.9V382.1H853.711V401.9H778.031Z" fill="#F6AF65"/>
<path d="M461.346 252.8C454.646 252.8 448.646 251.25 443.346 248.15C438.146 245.05 433.996 240.6 430.896 234.8C427.796 228.9 426.246 221.9 426.246 213.8C426.246 205.7 427.796 198.75 430.896 192.95C433.996 187.05 438.196 182.55 443.496 179.45C448.896 176.35 454.846 174.8 461.346 174.8C470.546 174.8 477.896 177.1 483.396 181.7C488.896 186.3 492.396 192.45 493.896 200.15H480.996C479.796 196.05 477.496 192.8 474.096 190.4C470.696 187.9 466.396 186.65 461.196 186.65C457.396 186.65 453.796 187.65 450.396 189.65C446.996 191.65 444.246 194.65 442.146 198.65C440.046 202.65 438.996 207.7 438.996 213.8C438.996 219.9 440.046 225 442.146 229.1C444.246 233.1 446.996 236.1 450.396 238.1C453.796 240.1 457.396 241.1 461.196 241.1C466.696 241.1 471.046 239.85 474.246 237.35C477.546 234.85 479.796 231.55 480.996 227.45H493.896C491.996 235.35 488.246 241.55 482.646 246.05C477.146 250.55 470.046 252.8 461.346 252.8ZM517.688 251V240.2H536.738V191.15C536.738 188.65 535.538 187.4 533.138 187.4H519.638V176.6H537.788C541.088 176.6 543.738 177.5 545.738 179.3C547.738 181.1 548.738 183.75 548.738 187.25V190.4H549.338C550.538 185.4 552.788 181.55 556.088 178.85C559.488 176.15 564.188 174.8 570.188 174.8H583.838V188.15H568.388C562.288 188.15 557.588 190.2 554.288 194.3C550.988 198.3 549.338 203.45 549.338 209.75V240.2H572.738V251H517.688ZM634.779 252.8C625.779 252.8 618.979 250.1 614.379 244.7C609.779 239.3 607.479 231.5 607.479 221.3V176.6H620.079V219.8C620.079 226.4 621.529 231.6 624.429 235.4C627.429 239.1 631.929 240.95 637.929 240.95C643.929 240.95 648.979 238.95 653.079 234.95C657.179 230.85 659.229 225 659.229 217.4V176.6H671.829V251H661.329L659.979 239.75H659.229C657.229 243.35 654.079 246.45 649.779 249.05C645.479 251.55 640.479 252.8 634.779 252.8ZM690.521 251V176.6H700.871L702.221 185.3H702.971C704.271 182.3 706.221 179.8 708.821 177.8C711.521 175.8 714.771 174.8 718.571 174.8C722.371 174.8 725.571 175.75 728.171 177.65C730.871 179.45 732.821 182 734.021 185.3H734.621C735.921 182.3 738.021 179.8 740.921 177.8C743.821 175.8 747.321 174.8 751.421 174.8C757.121 174.8 761.371 176.75 764.171 180.65C767.071 184.45 768.521 189.55 768.521 195.95V251H756.221V197.9C756.221 194.3 755.471 191.45 753.971 189.35C752.571 187.25 750.271 186.2 747.071 186.2C743.771 186.2 741.071 187.45 738.971 189.95C736.871 192.45 735.821 196 735.821 200.6V251H723.371V197.9C723.371 194.3 722.671 191.45 721.271 189.35C719.871 187.25 717.571 186.2 714.371 186.2C711.071 186.2 708.321 187.45 706.121 189.95C704.021 192.45 702.971 196 702.971 200.6V251H690.521ZM822.462 252.8C816.762 252.8 811.912 251.65 807.912 249.35C804.012 246.95 801.112 243.7 799.212 239.6H798.312L796.962 251H786.612V143H799.212V187.25C801.112 183.95 804.062 181.05 808.062 178.55C812.162 176.05 816.962 174.8 822.462 174.8C828.862 174.8 834.512 176.3 839.412 179.3C844.312 182.3 848.162 186.7 850.962 192.5C853.762 198.3 855.162 205.35 855.162 213.65C855.162 222.05 853.762 229.2 850.962 235.1C848.162 240.9 844.262 245.3 839.262 248.3C834.362 251.3 828.762 252.8 822.462 252.8ZM820.812 240.8C827.112 240.8 832.262 238.6 836.262 234.2C840.362 229.7 842.412 222.9 842.412 213.8C842.412 204.7 840.362 197.95 836.262 193.55C832.262 189.05 827.112 186.8 820.812 186.8C814.512 186.8 809.312 189.05 805.212 193.55C801.112 197.95 799.062 204.7 799.062 213.8C799.062 222.9 801.112 229.7 805.212 234.2C809.312 238.6 814.512 240.8 820.812 240.8Z" fill="white"/>
</svg>
